<?xml version="1.0" encoding="utf-8"?>
<!-- Generator: Adobe Illustrator 24.0.1, SVG Export Plug-In . SVG Version: 6.00 Build 0)  -->
<svg version="1.1" id="Camada_1" xmlns="http://www.w3.org/2000/svg" xmlns:xlink="http://www.w3.org/1999/xlink" x="0px" y="0px"
	 viewBox="0 0 24 24" style="enable-background:new 0 0 24 24;" xml:space="preserve">
<style type="text/css">
	.st0{clip-path:url(#SVGID_2_);}
	.st1{fill:none;stroke:#000000;stroke-width:2;stroke-linecap:round;stroke-linejoin:round;}
</style>
<g>
	<defs>
		<rect id="SVGID_1_" width="24" height="24"/>
	</defs>
	<clipPath id="SVGID_2_">
		<use xlink:href="#SVGID_1_"  style="overflow:visible;"/>
	</clipPath>
	<g class="st0">
		<path class="st1" d="M16,22v-3.9c0-0.5,0-1-0.2-1.4c-0.2-0.5-0.4-0.9-0.8-1.2c3.1-0.4,6.4-1.5,6.4-7c0-1.4-0.5-2.7-1.5-3.8
			c0.5-1.2,0.4-2.6-0.1-3.8c0,0-1.2-0.3-3.9,1.5c-2.3-0.6-4.7-0.6-7,0C6.3,0.6,5.1,1,5.1,1C4.6,2.2,4.5,3.5,5,4.8
			c-1,1-1.5,2.4-1.5,3.8c0,5.4,3.3,6.6,6.4,7c-0.3,0.3-0.6,0.7-0.7,1.2C9,17.2,9,17.7,9,18.1V22 M9,19c-5,1.5-5-2.5-7-3L9,19z"/>
	</g>
</g>
</svg>
