<?xml version="1.0" encoding="utf-8"?>
<!-- Generator: Adobe Illustrator 24.0.1, SVG Export Plug-In . SVG Version: 6.00 Build 0)  -->
<svg version="1.1" id="Camada_1" xmlns="http://www.w3.org/2000/svg" xmlns:xlink="http://www.w3.org/1999/xlink" x="0px" y="0px"
	 viewBox="0 0 24 24" style="enable-background:new 0 0 24 24;" xml:space="preserve">
<style type="text/css">
	.st0{fill:none;stroke:#000000;stroke-width:2;stroke-linecap:round;stroke-linejoin:round;}
</style>
<path class="st0" d="M23,3c-1,0.7-2,1.2-3.1,1.5c-0.6-0.7-1.4-1.2-2.3-1.4c-0.9-0.2-1.8-0.2-2.7,0.2S13.3,4.2,12.8,5
	C12.3,5.7,12,6.6,12,7.5v1c-1.8,0-3.5-0.3-5.1-1.1C5.4,6.6,4,5.4,3,4c0,0-4,9,5,13c-2.1,1.4-4.5,2.1-7,2c9,5,20,0,20-11.5
	c0-0.3,0-0.6-0.1-0.8C21.9,5.7,22.7,4.4,23,3L23,3z"/>
</svg>
