<?xml version="1.0" standalone="no"?>
<!DOCTYPE svg PUBLIC "-//W3C//DTD SVG 20010904//EN"
 "http://www.w3.org/TR/2001/REC-SVG-20010904/DTD/svg10.dtd">
<svg version="1.0" xmlns="http://www.w3.org/2000/svg"
 width="563.000000pt" height="563.000000pt" viewBox="0 0 563.000000 563.000000"
 preserveAspectRatio="xMidYMid meet">
<metadata>
Created by potrace 1.14, written by Peter Selinger 2001-2017
</metadata>
<g transform="translate(0.000000,563.000000) scale(0.100000,-0.100000)"
fill="#000000" stroke="none">
<path d="M2833 5292 c-60 -137 -171 -391 -188 -427 -7 -16 -46 -104 -85 -195
-39 -90 -80 -183 -90 -205 -10 -22 -64 -146 -120 -275 -56 -129 -114 -260
-128 -290 -13 -30 -40 -91 -59 -134 -18 -44 -40 -94 -48 -110 -46 -101 -215
-491 -215 -496 0 -4 48 -23 108 -43 235 -77 1261 -414 1477 -484 127 -42 235
-80 241 -87 15 -15 147 -276 142 -281 -2 -2 -127 38 -278 89 -151 51 -373 125
-492 166 l-217 73 -138 -109 c-76 -59 -152 -119 -169 -133 -17 -14 -48 -39
-69 -56 -76 -59 -585 -462 -610 -483 -38 -32 -95 -74 -95 -70 0 4 92 223 114
270 8 18 87 200 174 405 l160 372 -52 19 c-137 51 -387 134 -389 131 -2 -2
-29 -65 -61 -139 -32 -74 -69 -157 -81 -185 -13 -27 -132 -300 -265 -605 -133
-305 -250 -573 -260 -595 -10 -22 -42 -94 -70 -160 -29 -66 -68 -153 -86 -193
-19 -41 -34 -75 -34 -77 0 -6 -329 -755 -346 -787 -9 -17 -11 -29 -5 -27 5 2
76 56 157 119 157 123 229 178 309 240 28 21 111 86 185 145 74 58 149 116
165 129 17 13 219 171 450 351 231 180 432 337 447 349 14 11 41 32 59 46 42
32 184 143 228 178 19 15 71 55 115 90 45 34 89 69 98 77 9 7 27 21 40 29 27
17 -21 32 528 -161 102 -35 282 -98 400 -140 393 -137 434 -151 605 -211 94
-33 197 -69 230 -81 33 -12 98 -35 145 -51 47 -15 143 -49 214 -74 71 -25 130
-46 132 -46 3 0 -37 77 -136 265 -77 147 -198 377 -340 650 -34 66 -87 167
-118 225 -74 141 -144 274 -207 395 -145 277 -178 335 -187 335 -10 0 -569
180 -808 260 -47 15 -206 67 -355 115 -340 110 -374 121 -380 127 -3 2 45 112
106 244 167 360 189 407 193 403 2 -2 53 -101 114 -219 227 -440 205 -404 248
-418 62 -22 345 -112 609 -195 61 -20 119 -39 129 -43 19 -7 15 0 -124 261
-21 39 -63 120 -95 180 -32 61 -74 142 -95 180 -105 196 -173 326 -287 545
-62 119 -90 171 -180 340 -23 41 -64 120 -93 175 -54 102 -100 189 -174 327
-22 43 -43 78 -46 78 -3 0 -24 -44 -47 -98z"/>
</g>
</svg>
